<?xml version="1.0" standalone="no"?>
<!DOCTYPE svg PUBLIC "-//W3C//DTD SVG 20010904//EN"
 "http://www.w3.org/TR/2001/REC-SVG-20010904/DTD/svg10.dtd">
<svg version="1.0" xmlns="http://www.w3.org/2000/svg"
 width="752.000000pt" height="752.000000pt" viewBox="0 0 752.000000 752.000000"
 preserveAspectRatio="xMidYMid meet">

<g transform="translate(0.000000,752.000000) scale(0.100000,-0.100000)"
fill="#000000" stroke="none">
<path d="M2899 5255 c-348 -55 -559 -254 -629 -595 -21 -101 -32 -487 -26
-865 7 -462 23 -581 96 -725 98 -194 267 -318 502 -370 26 -5 103 -15 170 -20
l123 -11 170 -168 c94 -93 190 -180 215 -194 138 -78 342 -78 480 0 25 14 122
101 215 194 l170 168 123 11 c162 13 249 34 351 81 173 81 297 219 355 398 51
157 51 156 51 811 0 555 -2 623 -18 699 -73 340 -282 534 -629 585 -144 22
-1583 22 -1719 1z m1527 -365 c202 -12 271 -32 342 -95 115 -104 123 -156 125
-820 2 -561 -2 -622 -49 -725 -63 -137 -164 -184 -419 -196 -79 -3 -148 -12
-175 -21 -36 -13 -85 -56 -240 -208 -205 -202 -227 -217 -286 -195 -16 6 -112
94 -214 194 -102 101 -201 192 -220 201 -25 13 -75 21 -180 27 -233 14 -320
43 -394 130 -51 59 -75 145 -87 313 -14 177 -6 994 10 1085 6 36 25 93 42 128
58 120 161 168 384 181 193 12 1176 12 1361 1z"/>
<path d="M3355 4456 c-94 -42 -142 -162 -99 -249 9 -18 66 -83 127 -144 l111
-113 -115 -117 c-126 -128 -145 -162 -136 -239 13 -117 143 -196 253 -153 16
5 81 63 146 127 l118 116 118 -116 c64 -65 130 -122 145 -127 112 -42 241 36
254 153 9 77 -10 111 -136 239 l-115 117 111 113 c130 131 147 159 141 233 -8
90 -75 162 -162 171 -77 9 -111 -10 -239 -136 l-117 -115 -113 111 c-64 65
-128 119 -149 128 -45 18 -103 19 -143 1z"/>
</g>
</svg>
